<svg preserveAspectRatio="none" width="100%" height="100%" overflow="visible" style="display: block;" viewBox="0 0 61 61" fill="none" xmlns="http://www.w3.org/2000/svg">
<g id="mdi:brush">
<path id="Vector" d="M52.6379 11.7679L49.2321 8.36208C48.2917 7.37083 46.6396 7.37083 45.6483 8.36208L22.875 31.1354L29.8646 38.125L52.6379 15.3517C53.6292 14.3604 53.6292 12.7083 52.6379 11.7679V11.7679ZM17.7917 35.5833C15.7694 35.5833 13.8299 36.3867 12.4 37.8166C10.97 39.2466 10.1667 41.1861 10.1667 43.2083C10.1667 46.5379 7.21833 48.2917 5.08333 48.2917C7.42167 51.3925 11.4375 53.375 15.25 53.375C17.9464 53.375 20.5323 52.3039 22.4389 50.3972C24.3455 48.4906 25.4167 45.9047 25.4167 43.2083C25.4167 41.1861 24.6133 39.2466 23.1834 37.8166C21.7534 36.3867 19.8139 35.5833 17.7917 35.5833Z" fill="var(--fill-0, #2091F9)"/>
</g>
</svg>
