<svg preserveAspectRatio="none" width="100%" height="100%" overflow="visible" style="display: block;" viewBox="0 0 40.9866 40.9866" fill="none" xmlns="http://www.w3.org/2000/svg">
<g id="ant-design:facebook-filled">
<path id="Vector" d="M35.2237 4.48291H5.76461C5.05615 4.48291 4.48378 5.05528 4.48378 5.76374V35.2229C4.48378 35.9313 5.05615 36.5037 5.76461 36.5037H35.2237C35.9322 36.5037 36.5046 35.9313 36.5046 35.2229V5.76374C36.5046 5.05528 35.9322 4.48291 35.2237 4.48291ZM31.5253 13.829H28.9677C26.9624 13.829 26.5741 14.7816 26.5741 16.1825V19.2685H31.3612L30.7368 24.0996H26.5741V36.5037H21.5829V24.1036H17.4082V19.2685H21.5829V15.7062C21.5829 11.5715 24.1085 9.31805 27.7989 9.31805C29.5681 9.31805 31.085 9.45013 31.5293 9.51017V13.829H31.5253Z" fill="var(--fill-0, white)"/>
</g>
</svg>
