<svg preserveAspectRatio="none" width="100%" height="100%" overflow="visible" style="display: block;" viewBox="0 0 26 32" fill="none" xmlns="http://www.w3.org/2000/svg">
<g id="bx:bx-map" clip-path="url(#clip0_0_325)">
<path id="Vector" d="M12.9998 19.1667C16.4927 19.1667 19.3332 16.3262 19.3332 12.8333C19.3332 9.3405 16.4927 6.5 12.9998 6.5C9.507 6.5 6.6665 9.3405 6.6665 12.8333C6.6665 16.3262 9.507 19.1667 12.9998 19.1667ZM12.9998 9.66667C14.7463 9.66667 16.1665 11.0869 16.1665 12.8333C16.1665 14.5797 14.7463 16 12.9998 16C11.2534 16 9.83317 14.5797 9.83317 12.8333C9.83317 11.0869 11.2534 9.66667 12.9998 9.66667Z" fill="var(--fill-0, #2091F9)"/>
<path id="Vector_2" d="M11.7487 31.5388C12.0166 31.7302 12.3377 31.8331 12.667 31.8331C12.9963 31.8331 13.3173 31.7302 13.5853 31.5388C14.0667 31.1984 25.3796 23.03 25.3337 12.8333C25.3337 5.84925 19.6511 0.16667 12.667 0.16667C5.6829 0.16667 0.000320591 5.84925 0.000320591 12.8254C-0.0455961 23.03 11.2673 31.1984 11.7487 31.5388ZM12.667 3.33334C17.9062 3.33334 22.167 7.59409 22.167 12.8413C22.2002 19.8681 15.2193 26.1777 12.667 28.2471C10.1162 26.1761 3.13374 19.8649 3.16699 12.8333C3.16699 7.59409 7.42774 3.33334 12.667 3.33334Z" fill="var(--fill-0, #2091F9)"/>
</g>
<defs>
<clipPath id="clip0_0_325">
<rect width="26" height="32" fill="white"/>
</clipPath>
</defs>
</svg>
