<svg preserveAspectRatio="none" width="100%" height="100%" overflow="visible" style="display: block;" viewBox="0 0 40.9866 40.9866" fill="none" xmlns="http://www.w3.org/2000/svg">
<g id="ant-design:linkedin-filled">
<path id="Vector" d="M35.2249 4.48291H5.76579C5.05733 4.48291 4.48496 5.05528 4.48496 5.76374V35.2229C4.48496 35.9313 5.05733 36.5037 5.76579 36.5037H35.2249C35.9334 36.5037 36.5057 35.9313 36.5057 35.2229V5.76374C36.5057 5.05528 35.9334 4.48291 35.2249 4.48291ZM13.9831 31.7686H9.23204V16.4867H13.9831V31.7686ZM11.6096 14.3973C11.0649 14.3973 10.5325 14.2358 10.0797 13.9332C9.6268 13.6307 9.27384 13.2006 9.06542 12.6974C8.85699 12.1942 8.80245 11.6405 8.90871 11.1063C9.01497 10.5721 9.27724 10.0815 9.66236 9.69633C10.0475 9.31121 10.5382 9.04894 11.0723 8.94268C11.6065 8.83643 12.1602 8.89096 12.6634 9.09939C13.1666 9.30781 13.5967 9.66077 13.8993 10.1136C14.2019 10.5665 14.3634 11.0989 14.3634 11.6436C14.3594 13.1645 13.1266 14.3973 11.6096 14.3973ZM31.7707 31.7686H27.0236V24.3358C27.0236 22.5626 26.9916 20.2852 24.554 20.2852C22.0844 20.2852 21.7041 22.2144 21.7041 24.2077V31.7686H16.9611V16.4867H21.516V18.5761H21.5801C22.2125 17.3753 23.7615 16.1065 26.075 16.1065C30.8861 16.1065 31.7707 19.2725 31.7707 23.3872V31.7686V31.7686Z" fill="var(--fill-0, white)"/>
</g>
</svg>
