<svg preserveAspectRatio="none" width="100%" height="100%" overflow="visible" style="display: block;" viewBox="0 0 193 63" fill="none" xmlns="http://www.w3.org/2000/svg">
<g id="logos:google" clip-path="url(#clip0_0_217)">
<path id="Vector" d="M186.988 38.502L192.342 42.0528C190.605 44.5991 186.448 48.9678 179.263 48.9678C170.339 48.9678 163.694 42.0997 163.694 33.3626C163.694 24.0652 170.41 17.7577 178.511 17.7577C186.659 17.7577 190.651 24.2051 191.943 27.6858L192.648 29.4615L171.655 38.1048C173.251 41.2353 175.741 42.8238 179.263 42.8238C182.785 42.8238 185.227 41.0951 186.988 38.502V38.502ZM170.528 32.8725L184.546 27.0787C183.771 25.14 181.47 23.7618 178.722 23.7618C175.224 23.7618 170.363 26.8455 170.528 32.8725Z" fill="var(--fill-0, #FF302F)"/>
<path id="Vector_2" d="M153.573 1.84916H160.336V47.5429H153.573V1.84879V1.84916Z" fill="var(--fill-0, #20B15A)"/>
<path id="Vector_3" d="M142.912 18.9724H149.441V46.725C149.441 58.2416 142.607 62.9838 134.529 62.9838C126.921 62.9838 122.342 57.8913 120.628 53.7566L126.616 51.2801C127.696 53.8263 130.302 56.8402 134.529 56.8402C139.719 56.8402 142.912 53.6396 142.912 47.6595V45.417H142.678C141.128 47.2856 138.169 48.9675 134.412 48.9675C126.569 48.9675 119.383 42.1695 119.383 33.4095C119.383 24.6022 126.569 17.7345 134.412 17.7345C138.146 17.7345 141.128 19.3931 142.678 21.2152H142.912V18.9727V18.9724ZM143.382 33.4095C143.382 27.8962 139.695 23.8781 134.999 23.8781C130.255 23.8781 126.263 27.8962 126.263 33.4095C126.263 38.8522 130.255 42.8002 134.999 42.8002C139.696 42.8238 143.382 38.8522 143.382 33.4095H143.382Z" fill="var(--fill-0, #3686F7)"/>
<path id="Vector_4" d="M82.2572 33.2925C82.2572 42.2865 75.2127 48.8973 66.5711 48.8973C57.9298 48.8973 50.8849 42.2632 50.8849 33.2925C50.8849 24.252 57.9298 17.6644 66.5711 17.6644C75.2127 17.6644 82.2572 24.252 82.2572 33.2925ZM75.4005 33.2925C75.4005 27.6862 71.3143 23.8312 66.5711 23.8312C61.8279 23.8312 57.7417 27.6862 57.7417 33.2925C57.7417 38.8522 61.8279 42.7537 66.5711 42.7537C71.3147 42.7537 75.4005 38.8522 75.4005 33.2925Z" fill="var(--fill-0, #FF302F)"/>
<path id="Vector_5" d="M116.518 33.3626C116.518 42.3566 109.473 48.9675 100.832 48.9675C92.1904 48.9675 85.1459 42.3562 85.1459 33.3626C85.1459 24.3221 92.1904 17.7577 100.832 17.7577C109.473 17.7577 116.518 24.2988 116.518 33.3626V33.3626ZM109.638 33.3626C109.638 27.7563 105.552 23.9013 100.808 23.9013C96.0651 23.9013 91.979 27.7563 91.979 33.3626C91.979 38.9223 96.0651 42.8238 100.808 42.8238C105.575 42.8238 109.638 38.8991 109.638 33.3626Z" fill="var(--fill-0, #FFBA40)"/>
<path id="Vector_6" d="M25.1012 42.123C15.262 42.123 7.56011 34.227 7.56011 24.4387C7.56011 14.6509 15.262 6.75485 25.1012 6.75485C30.4084 6.75485 34.2827 8.83385 37.1475 11.4971L41.8678 6.80173C37.8758 2.99398 32.5453 0.0967267 25.1012 0.0967267C11.6225 0.0971017 0.280389 11.0302 0.280389 24.4387C0.280389 37.848 11.6225 48.7807 25.1012 48.7807C32.381 48.7807 37.8758 46.398 42.1731 41.9595C46.5876 37.5675 47.9495 31.4002 47.9495 26.4011C47.9495 24.8359 47.7618 23.2241 47.5503 22.0327H25.1012V28.527H41.0927C40.6231 32.592 39.3316 35.3719 37.4295 37.2637C35.1282 39.5767 31.4887 42.123 25.1012 42.123V42.123Z" fill="var(--fill-0, #3686F7)"/>
</g>
<defs>
<clipPath id="clip0_0_217">
<rect width="193" height="63" fill="white"/>
</clipPath>
</defs>
</svg>
